<svg width="30" height="30" viewBox="0 0 30 30" fill="none" xmlns="http://www.w3.org/2000/svg">
<g clip-path="url(#clip0_42_301)">
<path d="M15.0073 0.227264C8.83882 0.227264 7.03478 0.233628 6.68411 0.262718C5.41824 0.367942 4.63054 0.567254 3.77238 0.994514C3.11104 1.32291 2.58946 1.70358 2.0747 2.2372C1.13723 3.21036 0.569068 4.40759 0.363392 5.83073C0.263395 6.52162 0.234305 6.66252 0.228397 10.1915C0.226124 11.3678 0.228397 12.916 0.228397 14.9925C0.228397 21.1559 0.235215 22.9582 0.264759 23.3082C0.367029 24.5399 0.560205 25.3149 0.969283 26.1626C1.75108 27.7853 3.24421 29.0034 5.00325 29.458C5.61232 29.6148 6.28503 29.7011 7.14864 29.7421C7.51454 29.758 11.244 29.7693 14.9757 29.7693C18.7074 29.7693 22.4391 29.7648 22.7959 29.7466C23.7959 29.6996 24.3765 29.6216 25.0186 29.4557C26.789 28.9989 28.2548 27.7989 29.0525 26.1535C29.4536 25.3263 29.6571 24.5218 29.7491 23.3543C29.7691 23.0998 29.7775 19.0415 29.7775 14.9886C29.7775 10.9351 29.7684 6.88434 29.7484 6.6298C29.6552 5.44347 29.4518 4.64577 29.0378 3.80261C28.698 3.1124 28.3207 2.59697 27.773 2.06994C26.7955 1.13633 25.6001 0.568163 24.1756 0.362715C23.4854 0.262945 23.3479 0.233401 19.8162 0.227264H15.0073Z" fill="url(#paint0_radial_42_301)"/>
<path d="M15.0073 0.227264C8.83882 0.227264 7.03478 0.233628 6.68411 0.262718C5.41824 0.367942 4.63054 0.567254 3.77238 0.994514C3.11104 1.32291 2.58946 1.70358 2.0747 2.2372C1.13723 3.21036 0.569068 4.40759 0.363392 5.83073C0.263395 6.52162 0.234305 6.66252 0.228397 10.1915C0.226124 11.3678 0.228397 12.916 0.228397 14.9925C0.228397 21.1559 0.235215 22.9582 0.264759 23.3082C0.367029 24.5399 0.560205 25.3149 0.969283 26.1626C1.75108 27.7853 3.24421 29.0034 5.00325 29.458C5.61232 29.6148 6.28503 29.7011 7.14864 29.7421C7.51454 29.758 11.244 29.7693 14.9757 29.7693C18.7074 29.7693 22.4391 29.7648 22.7959 29.7466C23.7959 29.6996 24.3765 29.6216 25.0186 29.4557C26.789 28.9989 28.2548 27.7989 29.0525 26.1535C29.4536 25.3263 29.6571 24.5218 29.7491 23.3543C29.7691 23.0998 29.7775 19.0415 29.7775 14.9886C29.7775 10.9351 29.7684 6.88434 29.7484 6.6298C29.6552 5.44347 29.4518 4.64577 29.0378 3.80261C28.698 3.1124 28.3207 2.59697 27.773 2.06994C26.7955 1.13633 25.6001 0.568163 24.1756 0.362715C23.4854 0.262945 23.3479 0.233401 19.8162 0.227264H15.0073Z" fill="url(#paint1_radial_42_301)"/>
<path d="M15.0005 4.09079C12.0378 4.09079 11.666 4.10374 10.5024 4.1567C9.34109 4.20988 8.54838 4.39374 7.85477 4.6635C7.13729 4.94213 6.52867 5.31484 5.92233 5.92142C5.31553 6.52776 4.94281 7.13638 4.66327 7.85363C4.39283 8.54747 4.20874 9.3404 4.15647 10.5013C4.10443 11.6649 4.09079 12.0369 4.09079 14.9996C4.09079 17.9622 4.10397 18.3329 4.1567 19.4965C4.2101 20.6578 4.39396 21.4505 4.6635 22.1441C4.94236 22.8616 5.31507 23.4702 5.92164 24.0765C6.52776 24.6833 7.13638 25.057 7.8534 25.3356C8.54747 25.6054 9.3404 25.7892 10.5015 25.8424C11.6651 25.8954 12.0367 25.9083 14.9991 25.9083C17.962 25.9083 18.3326 25.8954 19.4962 25.8424C20.6576 25.7892 21.4512 25.6054 22.1452 25.3356C22.8625 25.057 23.4702 24.6833 24.0763 24.0765C24.6831 23.4702 25.0558 22.8616 25.3354 22.1443C25.6035 21.4505 25.7876 20.6576 25.8422 19.4967C25.8944 18.3331 25.9081 17.9622 25.9081 14.9996C25.9081 12.0369 25.8944 11.6651 25.8422 10.5015C25.7876 9.34018 25.6035 8.54747 25.3354 7.85386C25.0558 7.13638 24.6831 6.52776 24.0763 5.92142C23.4695 5.31462 22.8627 4.9419 22.1446 4.6635C21.4491 4.39374 20.656 4.20988 19.4946 4.1567C18.331 4.10374 17.9606 4.09079 14.9971 4.09079H15.0005ZM14.0219 6.05664C14.3123 6.05618 14.6364 6.05664 15.0005 6.05664C17.9131 6.05664 18.2583 6.06709 19.4085 6.11936C20.4721 6.168 21.0494 6.34572 21.4339 6.49504C21.943 6.69276 22.3059 6.92911 22.6875 7.31092C23.0693 7.69273 23.3057 8.05635 23.5038 8.56543C23.6532 8.94951 23.8311 9.52676 23.8795 10.5904C23.9318 11.7403 23.9431 12.0858 23.9431 14.9971C23.9431 17.9083 23.9318 18.2538 23.8795 19.4037C23.8309 20.4673 23.6532 21.0446 23.5038 21.4287C23.3061 21.9377 23.0693 22.3002 22.6875 22.6818C22.3057 23.0636 21.9432 23.3 21.4339 23.4977C21.0498 23.6477 20.4721 23.825 19.4085 23.8736C18.2585 23.9259 17.9131 23.9372 15.0005 23.9372C12.0876 23.9372 11.7424 23.9259 10.5924 23.8736C9.52881 23.8245 8.95155 23.6468 8.56679 23.4975C8.05772 23.2998 7.69409 23.0634 7.31228 22.6816C6.93048 22.2998 6.69412 21.9371 6.49594 21.4278C6.34663 21.0437 6.16868 20.4664 6.12027 19.4028C6.068 18.2529 6.05755 17.9074 6.05755 14.9943C6.05755 12.0812 6.068 11.7376 6.12027 10.5876C6.16891 9.52403 6.34663 8.94678 6.49594 8.56225C6.69367 8.05317 6.93048 7.68954 7.31228 7.30774C7.69409 6.92593 8.05772 6.68957 8.56679 6.4914C8.95132 6.3414 9.52881 6.16414 10.5924 6.11527C11.5987 6.06982 11.9887 6.05619 14.0219 6.05391V6.05664ZM20.8235 7.86795C20.1008 7.86795 19.5144 8.45361 19.5144 9.17654C19.5144 9.89925 20.1008 10.4856 20.8235 10.4856C21.5462 10.4856 22.1325 9.89925 22.1325 9.17654C22.1325 8.45384 21.5462 7.86749 20.8235 7.86749V7.86795ZM15.0005 9.39745C11.9067 9.39745 9.39836 11.9058 9.39836 14.9996C9.39836 18.0933 11.9067 20.6005 15.0005 20.6005C18.0942 20.6005 20.6017 18.0933 20.6017 14.9996C20.6017 11.9058 18.0942 9.39745 15.0005 9.39745ZM15.0005 11.3633C17.0086 11.3633 18.6367 12.9912 18.6367 14.9996C18.6367 17.0077 17.0086 18.6358 15.0005 18.6358C12.9921 18.6358 11.3642 17.0077 11.3642 14.9996C11.3642 12.9912 12.9921 11.3633 15.0005 11.3633Z" fill="white"/>
</g>
<defs>
<radialGradient id="paint0_radial_42_301" cx="0" cy="0" r="1" gradientUnits="userSpaceOnUse" gradientTransform="translate(8.07667 32.0447) rotate(-90) scale(29.2784 27.2386)">
<stop stop-color="#FFDD55"/>
<stop offset="0.1" stop-color="#FFDD55"/>
<stop offset="0.5" stop-color="#FF543E"/>
<stop offset="1" stop-color="#C837AB"/>
</radialGradient>
<radialGradient id="paint1_radial_42_301" cx="0" cy="0" r="1" gradientUnits="userSpaceOnUse" gradientTransform="translate(-4.72241 2.35542) rotate(78.6776) scale(13.0877 53.9616)">
<stop stop-color="#3771C8"/>
<stop offset="0.128" stop-color="#3771C8"/>
<stop offset="1" stop-color="#6600FF" stop-opacity="0"/>
</radialGradient>
<clipPath id="clip0_42_301">
<rect width="30" height="29.9991" fill="white"/>
</clipPath>
</defs>
</svg>
