<svg width="6" height="12" viewBox="0 0 6 12" fill="none" xmlns="http://www.w3.org/2000/svg">
<path d="M0.156988 0.930992L4.76799 5.61599C4.86912 5.71821 4.92584 5.8562 4.92584 5.99999C4.92584 6.14378 4.86912 6.28177 4.76799 6.38399L0.157989 11.069C0.0569129 11.1718 0.000276566 11.3103 0.000276566 11.4545C0.000276566 11.5987 0.0569129 11.7371 0.157989 11.84C0.207366 11.8906 0.266381 11.9309 0.331558 11.9584C0.396735 11.9859 0.466754 12 0.537489 12C0.608223 12 0.678242 11.9859 0.743419 11.9584C0.808596 11.9309 0.867611 11.8906 0.916988 11.84L5.52699 7.15599C5.82991 6.84747 5.99963 6.43237 5.99963 5.99999C5.99963 5.56761 5.82991 5.15251 5.52699 4.84399L0.916988 0.159992C0.867596 0.10919 0.808518 0.0688076 0.743249 0.0412328C0.677979 0.0136581 0.607843 -0.000549316 0.536988 -0.000549316C0.466133 -0.000549316 0.395998 0.0136581 0.330729 0.0412328C0.265459 0.0688076 0.206381 0.10919 0.156988 0.159992C0.0559125 0.262847 -0.000723839 0.401285 -0.000723839 0.545492C-0.000723839 0.689698 0.0559125 0.828136 0.156988 0.930992Z" fill="black"/>
</svg>
