<svg width="30" height="30" viewBox="0 0 30 30" fill="none" xmlns="http://www.w3.org/2000/svg">
<path d="M30 25.8333C30 28.135 28.135 30 25.8333 30H4.16667C1.86583 30 0 28.135 0 25.8333V4.16667C0 1.865 1.86583 0 4.16667 0H25.8333C28.135 0 30 1.865 30 4.16667V25.8333Z" fill="#1976D2"/>
<path d="M24.9475 10.0342C24.9858 9.90835 25.0042 9.79169 24.9992 9.68752C24.9867 9.38585 24.7792 9.16669 24.2908 9.16669H22.1092C21.5583 9.16669 21.3042 9.50002 21.1558 9.83419C21.1558 9.83419 19.7958 12.6334 18.2283 14.4792C17.72 15.0134 17.4617 15 17.1867 15C17.0392 15 16.6667 14.8217 16.6667 14.3325V10.0117C16.6667 9.43335 16.5225 9.16669 16.0567 9.16669H12.1825C11.8433 9.16669 11.6667 9.43335 11.6667 9.70085C11.6667 10.2567 12.415 10.39 12.5 11.9475V14.9667C12.5 15.7 12.3725 15.8334 12.0975 15.8334C11.3558 15.8334 9.89583 13.3334 8.91833 10.0567C8.70667 9.41169 8.495 9.16669 7.94417 9.16669H5.74167C5.10583 9.16669 5 9.47835 5 9.81169C5 10.4125 5.5 13.6609 8.22917 17.3959C10.2083 20.1042 12.8158 21.6667 15.1242 21.6667C16.5225 21.6667 16.6658 21.3109 16.6658 20.755V18.2784C16.6667 17.6109 16.8192 17.5 17.2642 17.5C17.5817 17.5 18.2292 17.7084 19.4792 19.1667C20.9208 20.8484 21.1825 21.6667 22.0092 21.6667H24.1908C24.6975 21.6667 24.9883 21.4542 25 21.0417C25.0025 20.9367 24.9875 20.8192 24.9533 20.6884C24.7917 20.2084 24.05 19.035 23.125 17.9167C22.6125 17.2975 22.1067 16.6842 21.8742 16.3509C21.7183 16.1334 21.6592 15.98 21.6667 15.8334C21.6742 15.6792 21.7542 15.5325 21.8742 15.3275C21.8525 15.3275 24.6725 11.3684 24.9475 10.0342Z" fill="white"/>
</svg>
